# xmcd
#
# Track frame offsets: 
#        150
#        18940
#        36059
#        49569
#        77192
#        90479
#        109297
#        124228
#        143214
#        163899
#        175849
#        187520
#        202995
#
# Disc length: 2865 seconds
#
# Revision: 0
# Processed by: cddbd v1.5.1PL0 Copyright (c) Steve Scherf et al.
# Submitted via: ExactAudioCopy v0.95a5
#
DISCID=a10b2f0d
DTITLE=Todd Taylor - Taylor Made
DYEAR=2004
DGENRE=Bluegrass
TTITLE0=Gold Tone Jubilee
TTITLE1=Jo Ban
TTITLE2=El Cumbanchero
TTITLE3=Ghost Riders
TTITLE4=Washington County
TTITLE5=Unleashed
TTITLE6=Randy Lynn Rag
TTITLE7=StairwayTo Heaven
TTITLE8=Shucken The Corn
TTITLE9=Dixie Breakdown
TTITLE10=Daybreak In Dixie
TTITLE11=Foggy Mountain Special
TTITLE12=John Hardy
EXTD=
EXTT0=
EXTT1=
EXTT2=
EXTT3=
EXTT4=
EXTT5=
EXTT6=
EXTT7=
EXTT8=
EXTT9=
EXTT10=
EXTT11=
EXTT12=
PLAYORDER=
